<svg xmlns="http://www.w3.org/2000/svg" width="1200" height="800" viewBox="0 0 1200 800" role="img" aria-label="Toyota Prius+">
  <defs>
    <linearGradient id="bg" x1="0" y1="0" x2="0" y2="1">
      <stop offset="0%" stop-color="#202027"/>
      <stop offset="100%" stop-color="#0E0E10"/>
    </linearGradient>
    <radialGradient id="glow" cx="50%" cy="62%" r="52%">
      <stop offset="0%" stop-color="#F5B301" stop-opacity="0.20"/>
      <stop offset="100%" stop-color="#F5B301" stop-opacity="0"/>
    </radialGradient>
  </defs>
  <rect width="1200" height="800" fill="url(#bg)"/>
  <rect width="1200" height="800" fill="url(#glow)"/>
  <ellipse cx="600" cy="612" rx="330" ry="26" fill="#000" opacity="0.45"/>
  
    <g transform="translate(480 400) scale(1)" fill="none" stroke="#F5B301" stroke-width="6" stroke-linejoin="round" stroke-linecap="round">
      <path d="M20 96 L40 58 Q46 48 60 48 L168 48 Q182 48 190 58 L214 92" />
      <path d="M8 96 L232 96 Q244 96 244 108 L244 124 Q244 132 234 132 L206 132" />
      <path d="M62 132 L178 132" />
      <path d="M34 132 L6 132 Q-4 132 -4 124 L-4 108 Q-4 96 8 96" />
      <circle cx="48" cy="132" r="17" />
      <circle cx="192" cy="132" r="17" />
      <path d="M112 48 L112 96" stroke-width="4" opacity="0.6" />
      <rect x="96" y="26" width="48" height="18" rx="4" fill="#F5B301" stroke="none"/>
    </g>
  <text x="600" y="700" text-anchor="middle" fill="#FAF8F3" opacity="0.92"
        font-family="Segoe UI, Inter, system-ui, sans-serif" font-size="38" font-weight="700">Toyota Prius+</text>
  <text x="600" y="742" text-anchor="middle" fill="#6B6B72"
        font-family="Segoe UI, Inter, system-ui, sans-serif" font-size="22">Photography pending — run npm run gen:images</text>
</svg>